<?xml version="1.0" encoding="UTF-8" standalone="no"?>
<!-- Created with Inkscape (http://www.inkscape.org/) -->

<svg
   width="24"
   height="24"
   viewBox="0 0 6.3499998 6.3499998"
   version="1.1"
   id="svg5"
   inkscape:export-filename="/Users/russbiggs/desktop/vine.png"
   inkscape:export-xdpi="96"
   inkscape:export-ydpi="96"
   inkscape:version="1.1.1 (c3084ef, 2021-09-22)"
   sodipodi:docname="vine.svg"
   xmlns:inkscape="http://www.inkscape.org/namespaces/inkscape"
   xmlns:sodipodi="http://sodipodi.sourceforge.net/DTD/sodipodi-0.dtd"
   xmlns="http://www.w3.org/2000/svg"
   xmlns:svg="http://www.w3.org/2000/svg">
  <sodipodi:namedview
     id="namedview7"
     pagecolor="#ffffff"
     bordercolor="#666666"
     borderopacity="1.0"
     inkscape:pageshadow="2"
     inkscape:pageopacity="0.0"
     inkscape:pagecheckerboard="0"
     inkscape:document-units="mm"
     showgrid="false"
     units="px"
     height="24px"
     inkscape:zoom="13.924217"
     inkscape:cx="8.0076316"
     inkscape:cy="18.062057"
     inkscape:window-width="1440"
     inkscape:window-height="773"
     inkscape:window-x="14"
     inkscape:window-y="29"
     inkscape:window-maximized="0"
     inkscape:current-layer="layer1" />
  <defs
     id="defs2" />
  <g
     inkscape:label="Layer 1"
     inkscape:groupmode="layer"
     id="layer1">
    <path
       style="fill:none;stroke:#008000;stroke-width:0.125853;stroke-linecap:butt;stroke-linejoin:miter;stroke-miterlimit:4;stroke-dasharray:none;stroke-opacity:1"
       d="m 1.214512,3.2181724 c 0,0 -0.1725243,0.1311173 -0.1311173,0.3381524 0.041437,0.2070352 0.1587319,0.2760419 0.1034436,0.4554773 -0.0552,0.1794354 -0.048244,0.2346349 -0.048244,0.2346349 l 0.4968843,0.00691"
       id="path54" />
    <path
       style="fill:none;stroke:#008000;stroke-width:0.125853;stroke-linecap:butt;stroke-linejoin:miter;stroke-miterlimit:4;stroke-dasharray:none;stroke-opacity:1"
       d="m 4.8706106,2.159839 c 0,0 -0.1725243,0.1311173 -0.1311173,0.3381524 0.041437,0.2070352 0.1587319,0.2760419 0.1034436,0.4554773 -0.0552,0.1794354 -0.048244,0.2346349 -0.048244,0.2346349 l 0.4968844,0.00691"
       id="path54-8" />
    <path
       style="fill:none;stroke:#008000;stroke-width:0.125853;stroke-linecap:butt;stroke-linejoin:miter;stroke-miterlimit:4;stroke-dasharray:none;stroke-opacity:1"
       d="m 3.5934606,4.7584658 c 0,0 -0.1725243,0.1311173 -0.1311173,0.3381524 0.041437,0.2070352 0.1587319,0.2760419 0.1034436,0.4554773 -0.0552,0.1794354 -0.048244,0.2346349 -0.048244,0.2346349 l 0.4968843,0.00691"
       id="path54-89" />
    <path
       style="fill:none;stroke:#008000;stroke-width:0.125853;stroke-linecap:butt;stroke-linejoin:miter;stroke-miterlimit:4;stroke-dasharray:none;stroke-opacity:1"
       d="m 2.5351272,0.4070841 c 0,0 -0.1725243,0.1311173 -0.1311173,0.3381524 0.041437,0.2070352 0.1587319,0.2760419 0.1034436,0.4554773 -0.0552,0.1794354 -0.048244,0.2346349 -0.048244,0.2346349 l 0.4968843,0.00691"
       id="path54-9" />
  </g>
</svg>
